# xmcd
#
# Track frame offsets:
# 182
# 13942
# 23877
# 32930
# 45212
# 55065
# 66447
# 77292
# 86850
# 97395
# 105610
# 118165
# 131595
# 147210
#
# Disc length: 2093 seconds
#
# Revision: 0
# Processed by: cddbd v1.4PL0 Copyright (c) Steve Scherf et al.
# Submitted via: Audion 2.5.0 (http://www.panic.com/audion/)
#
DISCID=c0082b0e
DTITLE=Charlie Feathers - That Rock-A-Billy-Cat
DYEAR=1900
DGENRE=
TTITLE0=Gone Gone Gone
TTITLE1=Tounge Tied Jill
TTITLE2=Wild Side Of Life
TTITLE3=Do You Know
TTITLE4=Rock Me
TTITLE5=Wide River
TTITLE6=Crazy Heart
TTITLE7=Uh Huh Honey
TTITLE8=cold Dark Night
TTITLE9=Rain
TTITLE10=Mama Oh Mama
TTITLE11=Cherry Wine
TTITLE12=There Will Be Three
TTITLE13=I'm Movin' On
EXTD=
EXTT0=
EXTT1=
EXTT2=
EXTT3=
EXTT4=
EXTT5=
EXTT6=
EXTT7=
EXTT8=
EXTT9=
EXTT10=
EXTT11=
EXTT12=
EXTT13=
PLAYORDER=
